# xmcd
#
# Track frame offsets: 
#        150
#        19310
#        41260
#        57903
#        79583
#        101540
#        120840
#        138525
#        161458
#        182820
#        197425
#        217548
#
# Disc length: 3186 seconds
#
# Revision: 8
# Processed by: cddbd v1.5.2PL0 Copyright (c) Steve Scherf et al.
# Submitted via: ExactAudioCopy v0.99pb4
#
DISCID=8d0c700c
DTITLE=Emmylou Harris - Wrecking Ball
DYEAR=1995
DGENRE=Country
TTITLE0=Where Will I Be
TTITLE1=Goodbye
TTITLE2=All My Tears (Be Washed Away)
TTITLE3=Wrecking Ball
TTITLE4=Going Back to Harlan
TTITLE5=Deeper Well
TTITLE6=Every Grain of Sand
TTITLE7=Sweet Old World
TTITLE8=May This Be Love
TTITLE9=Orphan Girl
TTITLE10=Blackhawk
TTITLE11=Waltz Across Texas Tonight
EXTD=
EXTT0=
EXTT1=
EXTT2=
EXTT3=
EXTT4=
EXTT5=
EXTT6=
EXTT7=
EXTT8=
EXTT9=
EXTT10=
EXTT11=
PLAYORDER=
